<?xml version="1.0" encoding="utf-8"?>
<!-- Generator: Adobe Illustrator 28.3.0, SVG Export Plug-In . SVG Version: 6.00 Build 0)  -->
<svg version="1.1" id="Capa_1" xmlns="http://www.w3.org/2000/svg" xmlns:xlink="http://www.w3.org/1999/xlink" x="0px" y="0px"
	 viewBox="0 0 24 24" style="enable-background:new 0 0 24 24;" xml:space="preserve">
<style type="text/css">
	.st0{fill:#FFFFFF;}
</style>
<path class="st0" d="M18.7,19.1c2-1.8,3.1-4.4,3.1-7.1c0-5.4-4.4-9.8-9.8-9.8S2.2,6.6,2.2,12c0,2.7,1.1,5.3,3.1,7.1
	c1.8,1.7,4.2,2.7,6.7,2.7C14.5,21.8,16.9,20.8,18.7,19.1z M6.1,17.8C7.6,16,9.7,15,12,15c2.3,0,4.4,1,5.9,2.8
	c-1.5,1.6-3.7,2.4-5.9,2.4C9.8,20.3,7.7,19.4,6.1,17.8z M15.8,9c0,2.1-1.7,3.8-3.8,3.8S8.2,11.1,8.2,9S9.9,5.2,12,5.2
	S15.8,6.9,15.8,9z"/>
</svg>
